G04 #@! TF.FileFunction,Copper,L1,Top,Signal*
%FSLAX46Y46*%
G04 Gerber Fmt 4.6, Leading zero omitted, Abs format (unit mm)*
G04 Created by KiCad (PCBNEW 4.0.1-stable) date 12/29/2015 3:52:51 AM*
%MOMM*%
G01*
G04 APERTURE LIST*
%ADD10C,0.100000*%
%ADD11R,2.032000X2.032000*%
%ADD12O,2.032000X2.032000*%
%ADD13R,1.727200X2.032000*%
%ADD14O,1.727200X2.032000*%
%ADD15R,2.032000X1.727200*%
%ADD16O,2.032000X1.727200*%
%ADD17C,1.524000*%
%ADD18C,0.250000*%
G04 APERTURE END LIST*
D10*
D11*
X64770000Y-55880000D03*
D12*
X64770000Y-53340000D03*
D13*
X54610000Y-62230000D03*
D14*
X57150000Y-62230000D03*
X59690000Y-62230000D03*
D15*
X62230000Y-68580000D03*
D16*
X62230000Y-71120000D03*
X62230000Y-73660000D03*
D15*
X53340000Y-53340000D03*
D16*
X53340000Y-55880000D03*
X53340000Y-58420000D03*
D15*
X57150000Y-53340000D03*
D16*
X57150000Y-55880000D03*
X57150000Y-58420000D03*
D15*
X60960000Y-53340000D03*
D16*
X60960000Y-55880000D03*
X60960000Y-58420000D03*
D15*
X73660000Y-68580000D03*
D16*
X73660000Y-71120000D03*
X73660000Y-73660000D03*
D17*
X68580000Y-66040000D03*
X68580000Y-63500000D03*
X68580000Y-68580000D03*
D13*
X68580000Y-57150000D03*
D14*
X71120000Y-57150000D03*
X73660000Y-57150000D03*
D13*
X68580000Y-53340000D03*
D14*
X71120000Y-53340000D03*
X73660000Y-53340000D03*
D18*
X68580000Y-57150000D02*
X71120000Y-57150000D01*
X73660000Y-57150000D02*
X71120000Y-57150000D01*
X68580000Y-63500000D02*
X68580000Y-57150000D01*
X68580000Y-57150000D02*
X67310000Y-55880000D01*
X67310000Y-55880000D02*
X64770000Y-55880000D01*
X66040000Y-55880000D02*
X57150000Y-55880000D01*
X57150000Y-55880000D02*
X53340000Y-55880000D01*
X71120000Y-53340000D02*
X68580000Y-53340000D01*
X73660000Y-53340000D02*
X71120000Y-53340000D01*
X64770000Y-53340000D02*
X68580000Y-53340000D01*
X66040000Y-53340000D02*
X60960000Y-53340000D01*
X60960000Y-53340000D02*
X57150000Y-53340000D01*
X57150000Y-53340000D02*
X53340000Y-53340000D01*
X54610000Y-62230000D02*
X53340000Y-60960000D01*
X53340000Y-60960000D02*
X53340000Y-58420000D01*
X57150000Y-62230000D02*
X57150000Y-58420000D01*
X59690000Y-62230000D02*
X60960000Y-60960000D01*
X60960000Y-60960000D02*
X60960000Y-58420000D01*
X62230000Y-68580000D02*
X66040000Y-68580000D01*
X66040000Y-68580000D02*
X68580000Y-66040000D01*
X73660000Y-71120000D02*
X62230000Y-71120000D01*
X62230000Y-73660000D02*
X73660000Y-73660000D01*
X68580000Y-68580000D02*
X73660000Y-68580000D01*
M02*
