M48
INCH,TZ
T1C0.031
T2C0.040
%
G90
G05
T1
X27000Y-25000
X27000Y-26000
X27000Y-27000
T2
X21000Y-21000
X21000Y-22000
X21000Y-23000
X21500Y-24500
X22500Y-21000
X22500Y-22000
X22500Y-23000
X22500Y-24500
X23500Y-24500
X24000Y-21000
X24000Y-22000
X24000Y-23000
X24500Y-27000
X24500Y-28000
X24500Y-29000
X25500Y-21000
X25500Y-22000
X27000Y-21000
X27000Y-22500
X28000Y-21000
X28000Y-22500
X29000Y-21000
X29000Y-22500
X29000Y-27000
X29000Y-28000
X29000Y-29000
T0
M30
